<?xml version="1.0" standalone="no"?>
<!DOCTYPE svg PUBLIC "-//W3C//DTD SVG 20010904//EN"
 "http://www.w3.org/TR/2001/REC-SVG-20010904/DTD/svg10.dtd">
<svg version="1.0" xmlns="http://www.w3.org/2000/svg"
 width="460.000000pt" height="460.000000pt" viewBox="0 0 460.000000 460.000000"
 preserveAspectRatio="xMidYMid meet">
<metadata>
Created by potrace 1.11, written by Peter Selinger 2001-2013
</metadata>
<g transform="translate(0.000000,460.000000) scale(0.100000,-0.100000)"
fill="#000000" stroke="none">
<path d="M840 4040 c-157 -22 -380 -82 -417 -112 -20 -16 -16 -172 7 -331 80
-541 418 -937 921 -1077 l69 -19 6 40 c4 21 10 39 15 39 4 0 11 15 14 33 3 17
7 39 9 47 2 8 9 29 15 45 7 17 19 51 27 77 8 26 19 50 24 53 6 3 10 15 10 26
0 10 4 19 8 19 5 0 19 23 32 50 13 28 27 50 32 50 4 0 8 7 8 15 0 8 5 15 11
15 5 0 7 5 4 11 -4 6 2 17 14 25 12 9 27 30 35 47 7 18 36 57 64 87 28 30 52
61 52 68 0 6 5 12 10 12 6 0 10 7 10 15 0 8 5 15 11 15 6 0 17 6 24 13 8 6 37
32 66 57 28 25 59 53 68 63 8 9 21 17 27 17 7 0 21 10 31 23 19 24 94 67 117
67 7 0 19 6 25 14 9 11 -1 25 -51 71 -210 190 -509 342 -793 401 -134 28 -389
40 -505 24z"/>
<path d="M2259 1758 c-316 -385 -478 -759 -520 -1203 -14 -156 -4 -364 19
-372 23 -9 233 34 337 68 341 114 595 317 782 624 47 78 111 228 132 309 12
45 -6 82 -44 92 -13 3 -25 14 -28 25 -3 12 -17 22 -36 25 -17 4 -31 13 -31 20
0 8 -5 14 -10 14 -6 0 -16 11 -22 25 -7 15 -17 24 -25 21 -7 -3 -13 -1 -13 4
0 6 -9 10 -20 10 -11 0 -20 5 -20 11 0 15 -47 56 -82 72 -16 6 -28 18 -28 24
0 7 -7 13 -15 13 -8 0 -22 11 -31 25 -9 14 -22 25 -29 25 -11 0 -35 19 -97 75
-15 14 -34 25 -42 25 -9 0 -16 7 -16 15 0 8 -7 15 -15 15 -8 0 -15 5 -15 12 0
6 -3 9 -6 5 -3 -3 -16 5 -29 19 -12 13 -29 24 -38 24 -8 0 -17 5 -19 10 -2 6
-19 -9 -39 -32z"/>
</g>
</svg>
